<?xml version="1.0" standalone="no"?>
<!DOCTYPE svg PUBLIC "-//W3C//DTD SVG 20010904//EN"
 "http://www.w3.org/TR/2001/REC-SVG-20010904/DTD/svg10.dtd">
<svg version="1.0" xmlns="http://www.w3.org/2000/svg"
 width="750.000000pt" height="750.000000pt" viewBox="0 0 750.000000 750.000000"
 preserveAspectRatio="xMidYMid meet">
<metadata>
Created by potrace 1.14, written by Peter Selinger 2001-2017
</metadata>
<g transform="translate(0.000000,750.000000) scale(0.100000,-0.100000)"
fill="#000000" stroke="none">
<path d="M3536 6747 c-10 -17 -26 -45 -36 -62 -9 -16 -36 -60 -58 -98 -23 -37
-42 -72 -42 -77 0 -6 -4 -10 -10 -10 -5 0 -10 -4 -10 -8 0 -7 -144 -254 -170
-292 -6 -8 -18 -29 -28 -47 -9 -17 -91 -156 -182 -307 -91 -152 -169 -284
-175 -293 -48 -85 -81 -142 -96 -163 -15 -23 -191 -318 -229 -385 -10 -16 -34
-57 -54 -90 -20 -33 -36 -65 -36 -72 0 -7 32 -64 70 -128 38 -64 70 -119 70
-122 0 -4 6 -14 14 -22 8 -9 22 -32 33 -51 38 -72 138 -235 145 -238 5 -2 8
-8 8 -13 0 -5 45 -84 100 -175 55 -92 100 -168 100 -169 0 -2 28 -50 63 -107
34 -57 71 -120 82 -140 11 -21 22 -38 26 -38 7 0 59 76 59 85 0 3 5 11 10 18
14 15 154 251 177 297 10 19 23 41 30 48 6 6 15 21 18 32 3 11 11 20 16 20 5
0 9 5 9 10 0 6 48 92 108 190 133 224 231 389 246 415 43 75 345 580 372 622
19 29 34 55 34 58 0 3 18 34 40 70 l41 64 1597 0 c878 0 1603 0 1610 1 9 0 12
128 12 605 l0 605 -1972 0 -1973 0 -19 -33z"/>
<path d="M0 3144 l0 -2424 625 0 625 0 -2 1209 c-2 956 0 1207 9 1199 12 -9
26 -34 57 -95 6 -13 14 -23 19 -23 4 0 7 -4 7 -9 0 -9 338 -581 349 -591 3 -3
19 -30 35 -60 16 -30 38 -66 48 -79 10 -13 18 -30 18 -37 0 -8 4 -14 8 -14 4
0 13 -12 20 -28 23 -50 37 -72 44 -72 5 0 8 -5 8 -10 0 -6 17 -39 38 -73 20
-34 43 -71 49 -82 7 -11 81 -135 165 -275 84 -140 157 -264 163 -275 6 -11 23
-39 38 -62 15 -24 27 -45 27 -47 0 -3 17 -31 38 -63 21 -32 49 -79 62 -106 14
-26 28 -47 32 -47 5 0 8 -4 8 -9 0 -9 99 -182 109 -191 3 -3 14 -21 24 -40 10
-19 29 -54 43 -77 l25 -43 434 0 c336 0 434 3 439 12 3 7 17 31 31 53 14 22
35 59 47 83 12 23 26 42 30 42 4 0 8 4 8 9 0 8 251 436 305 521 22 35 220 368
241 405 6 11 37 63 69 115 31 52 69 115 83 140 14 25 37 63 51 85 31 48 66
109 88 153 9 17 20 32 25 32 4 0 8 4 8 10 0 8 277 480 336 572 13 21 24 40 24
42 0 3 27 48 60 101 33 53 60 100 60 105 0 5 6 15 13 22 7 7 61 96 121 198 60
102 123 208 140 235 17 28 36 59 42 70 11 19 24 20 458 23 l446 2 0 -909 0
-909 -621 -1 c-342 0 -625 -3 -630 -8 -8 -8 -25 -41 -203 -386 -89 -174 -125
-244 -319 -620 -53 -103 -97 -190 -97 -192 0 -3 702 -5 1560 -5 l1560 0 0
2120 0 2120 -22 1 c-74 3 -2839 1 -2841 -2 -31 -47 -97 -162 -97 -169 0 -6 -4
-10 -10 -10 -5 0 -10 -5 -10 -10 0 -9 -119 -214 -152 -262 -17 -25 -65 -107
-90 -155 -12 -24 -26 -43 -30 -43 -4 0 -8 -5 -8 -10 0 -6 -11 -29 -26 -51 -14
-22 -33 -55 -43 -72 -10 -18 -67 -113 -126 -212 -59 -99 -113 -189 -119 -200
-6 -11 -71 -119 -143 -241 -154 -258 -145 -243 -247 -416 -43 -73 -87 -145
-97 -160 -10 -15 -19 -32 -19 -38 0 -5 -4 -10 -10 -10 -5 0 -10 -4 -10 -10 0
-5 -56 -104 -125 -220 -69 -115 -128 -216 -131 -225 -8 -19 -34 -20 -34 0 0 8
-4 15 -8 15 -4 0 -13 12 -19 28 -7 15 -17 34 -23 42 -6 8 -60 98 -120 200 -60
102 -114 190 -120 197 -5 7 -10 15 -10 17 0 5 -56 102 -90 156 -5 8 -32 53
-60 100 -28 47 -55 92 -60 100 -5 8 -26 44 -47 80 -21 36 -41 67 -44 70 -3 3
-9 15 -13 28 -4 12 -12 22 -17 22 -5 0 -9 5 -9 11 0 6 -30 61 -67 122 -38 61
-72 119 -78 129 -5 9 -25 43 -44 75 -19 32 -39 67 -45 78 -7 11 -24 39 -39 62
-15 24 -27 44 -27 46 0 3 -47 82 -105 177 -58 95 -105 174 -105 176 0 2 -24
43 -54 91 -29 49 -110 183 -179 300 -70 116 -136 226 -147 245 -11 18 -23 41
-26 51 -4 9 -10 17 -15 17 -5 0 -9 4 -9 9 0 5 -63 115 -140 244 l-140 235
-625 0 -625 0 0 -2424z"/>
</g>
</svg>
