<?xml version="1.0" standalone="no"?>
<!DOCTYPE svg PUBLIC "-//W3C//DTD SVG 20010904//EN"
 "http://www.w3.org/TR/2001/REC-SVG-20010904/DTD/svg10.dtd">
<svg version="1.0" xmlns="http://www.w3.org/2000/svg"
 width="190.000000pt" height="190.000000pt" viewBox="0 0 190.000000 190.000000"
 preserveAspectRatio="xMidYMid meet">
<metadata>
Created by potrace 1.14, written by Peter Selinger 2001-2017
</metadata>
<g transform="translate(0.000000,190.000000) scale(0.100000,-0.100000)"
fill="#000000" stroke="none">
<path d="M130 1887 c-47 -15 -107 -78 -120 -126 -7 -27 -10 -291 -8 -828 3
-777 3 -789 24 -828 11 -22 40 -53 63 -70 l43 -30 811 0 c804 0 812 0 852 21
22 11 54 40 70 63 l30 43 0 811 c0 804 0 812 -21 852 -11 22 -40 54 -63 70
l-43 30 -801 2 c-566 1 -812 -2 -837 -10z m1570 -462 l0 -115 -314 0 -314 0
-112 -191 -112 -190 -47 78 c-26 43 -57 96 -70 119 l-23 41 97 164 c53 90 103
174 111 187 l14 22 385 0 385 0 0 -115z m-1039 -425 c101 -170 187 -306 191
-302 4 4 69 111 143 237 75 127 139 233 143 237 4 3 132 9 285 13 l277 7 0
-416 0 -416 -300 0 c-165 0 -300 2 -300 5 0 3 25 55 55 115 l55 110 125 0 125
0 0 180 0 181 -91 -3 -91 -3 -172 -290 -171 -290 -86 -3 -87 -3 -158 268 -159
267 -3 -267 -2 -267 -120 0 -120 0 0 475 0 475 139 0 139 0 183 -310z"/>
</g>
</svg>
